/* XPM */
static char *result[] = {
/* columns rows colors chars-per-pixel */
"64 64 88 1 ",
"  c #0A0A0A",
". c #110F0D",
"X c #0F120D",
"o c #141611",
"O c #1B1512",
"+ c #1F1813",
"@ c #241B16",
"# c #2B1F18",
"$ c #152510",
"% c #1A2A15",
"& c #1D2C18",
"* c #23231E",
"= c #2C2019",
"- c #33251D",
"; c #22341D",
": c #3D2C21",
"> c #273C20",
", c #283F21",
"< c #422F23",
"1 c #463125",
"2 c #4A3326",
"3 c #533A2A",
"4 c #5A3E2E",
"5 c #29531B",
"6 c #2D581F",
"7 c #2B4424",
"8 c #2F4B26",
"9 c #2F5A21",
"0 c #315D23",
"q c #35552B",
"w c #36582B",
"e c #395D2E",
"r c #356126",
"t c #376428",
"y c #39652B",
"u c #3C6B2D",
"i c #3D6431",
"p c #3F6B31",
"a c #5E4130",
"s c #654330",
"d c #694632",
"f c #6D4935",
"g c #724D37",
"h c #734E38",
"j c #76503A",
"k c #7C543C",
"l c #426E34",
"z c #447335",
"x c #477837",
"c c #477638",
"v c #487738",
"b c #477838",
"n c #4A7B3A",
"m c #80573F",
"M c #865B41",
"N c #8B5E43",
"B c #8E6045",
"V c #50803F",
"C c #548243",
"Z c #588546",
"A c #5E894B",
"S c #628C4E",
"D c #658E50",
"F c #6A9255",
"G c #71975B",
"H c #7DA065",
"J c #83976A",
"K c #81A268",
"L c #88A76E",
"P c #90AE75",
"I c #94B078",
"U c #A6A689",
"Y c #A2BA84",
"T c #A8BE89",
"R c #ACC18C",
"E c #B0C490",
"W c #B9CB97",
"Q c #BFCF9D",
"! c #C4C4A2",
"~ c #C5D4A1",
"^ c #C9D4A4",
"/ c #CDD9A8",
"( c #D1DCAC",
") c #DBE3B4",
"_ c #E7ECBE",
"` c #ECF0C2",
"' c #FBFACE",
"] c #FFFDD2",
/* pixels */
"nnnnnnnnnnnnnnnnnnnnnnnnnnnnnnnnnnnnnnnnnnnnnnnnnnnnxVxxbVxVxxnn",
"nnnnnnnnnnnnnnnnnnnnnnnnnnnnnVnnnnnnnnnnnnnnnnnnnnnnVbbVVxxVbVnn",
"nnnnnnnnnnnnnnnnnnnnnnnnnnnnblpiiplnnnnnnnnnnnnnnnnnVxnnpxxxnnnn",
"nnnnnnnnnnnnnnnnnnnnnnnnbX            oennnnnnnnnnnnbbVnVVVxnnnn",
"nnnnnnnnnnnnnnCFGAVnnn&    o:hh 3m1X      znnbnnnnnnn95pnVVVnVxV",
"nnnnnnnnnnnnnF/]]`ICo   :NBBNNN 1BNBBBBd    ppppxnnr55556uxpttuu",
"nnnnnnCKTWYAC~']]]U   MNNBBBBBB :BBBBBBBBBX  %95rxb5555559u9556r",
"nnnnnnL)]]')H_]]]O  dNBBNNBBBBB.:BBBBBBBBBBB   85t95555555955555",
"nnnnnZ~']]]])`]]   NBBBBBBBBBBB +NBBBBBBBBBBBO .5555555555555555",
"nnnnnD)]]]]]')]  @BBBBBBBBBBBBB +NBBBNBBBBBBBB. $505555555555555",
"nnnnnZ(]]]]]]WO @NBBBBBBBBBBBBB OBBBBddBBBBBBBN  505555555555555",
"nnnnnnP']]]]'a  BBBBBBBBBBBBBBB .BBBNssNBBBBBBBN  05555559555550",
"nnnnnnZR']]]^  BBBBBBNBNBBBBBBB XNBBBddNBBBBBBBBa  t55555ut955rx",
"nnnnnnnCH~(W  MBBBBBBdskBBBBBBB .NBBNsdBBBNNBBBBB1 Xt555uxxuuuxx",
"nnnnnnnnnnp& 2BBBBBBBdssBBBBBBB  BBBBssNBBBNdNNBBBX 9pxuxnnnnxxV",
"nnnnnnnnnnC  BBBBBBBNssdBBBBBBB  NBBBdsNBBBdsNBBBBB  xVnnnnnnVxx",
"nnnnnnnnnn  NNBBBBBBNsssBBBBBBB  BBBBsdBBBNsssBBBBBf  nnnnnnnnnn",
"nnnnnnnnnc  BNBBBBBBMsssBBBBBBB  BBBBBNBBBBdssgBBBBB. qnnnnnnnnn",
"nnnnnnnnn  BBBBBBBBBfassBBBBBBB  BBBBBBBBBBdsssBBBBBN  nnnnnnnnn",
"nnnnnnnnn .BBBBBBBBBssssBBBBBBB  BBBBBBBBBNdsssBBBBBN: ynnnnnnnn",
"nnnnnnnnX NBBBBBBBBBssssBBBBBBB  BBBBBBBBBBfsssBBBBBBB  nnnnnnnn",
"nnnnnnnn  NNBBBBBBBBssssBBBBBBB  BBBBBBBBBNksssBBBBBBBo nnnnnnnn",
"nnnnnnnq dBBBBBBBBBBssssBBBBBBB  BBBBBBBBBBMsssBBBBBBBj qnnnnnnn",
"nnnnnnn  BBBBBBNBBNNkssMBBBBBBB  BBBBBBBBBNNsssBBBBBBBB  nnnnnnn",
"nnnnnnn  NNBBBBsdBBBBhkBBBBBBBB  BBBBBBBBBBBdsfBBBBBBBN  nnnnnnn",
"nnnnnnn *NBBBBNssNBBBBNBBBBBBBB  BBBBBBBBBBBMsBBBBBBBBNo EDnnnnn",
"nnnnnn8 mBBBBBBssNBBBBBBBBBBBBB  BBBBBBBBBBBNBBBBBBBBBBf !QCnnnn",
"nnnnnn  NBBBBBBssNBBBBBBBBBBBBB  BBBBBBBBBBBNBBBBBBBBBBB *'Fnnnn",
"nnnnnn  BBBBBBBssNBBBBBBk @NNBB. BBB  gNBBBBBBBBBBBBBBBB  ]Gnnnn",
"nnnnnn oBBBBBBNssNBBBBBB   NBBNO BB#   BBBBBBBBBBBBBBBBB  'Snnnn",
"nnnnnp hBBBBBBBssBBBBBBB   4BBBO BB3   BBBBBBBBBBNdgBBBN@ )Vnnnn",
"nnnnn; BBBBBBBBNNNBBBBBBh  NBBB# BBB2 aBBBBBBBBBBNssBBBNh Jnnnnn",
"nnnnn  BBBBBBBBBBBBBBBBBBBBBBBN= BBBBBBBBBBBBBBBBBssNBBBN ;nnnnn",
"nnnnn  BBBBBBBBBBBBBBBBBBBBBBBB: BBBBBBBBBBBBBBBBBssNBBBB  nnnnn",
"nnnnn  BBBBBBBBBBBBBBBBBBBBBBBN2 BBBBBBBBNBBBBBBBBssNBBBB  nnnnn",
"nnnnn  BBBBBBBBBBBBBBBBBBBBBBBN4 kBBBBBBjssNBBBBBBssNBBBB  vnnnn",
"nnnnc @BBBBBBBMNBBBBBBBBBBBBBBBh kBBBBBBfssmBBBBBBNNBBBBB  nnnnn",
"nnnnl sBBBBBBfssBBBBBBBBBBBBBBBk MBBBBBBsssdBBBBBBBBBBBBB  nnnnn",
"nnnnl kBBBBBBdssNBBBBBBBBBBBBBNk kBBBBBBssssBBBBBBBBBBBBB  nnnnn",
"nnnn; BBBBBBBfsshBBBBBBBBBBBBBBm kBBBBBBsssfBBBBBBBBBBBBN. nnnnn",
"nnnno BBBBBBBgssdNBBBBBBNNBBBBNm kNNBBBBsssMBBBBBBBBBBBBB. nnnnn",
"nnnn  BBBBBBNhssdBBBBBBBNsBBBBNM aBBBBBBfssNBBBBBBBBBBBBB# nnnnn",
"nnnn  BBBBBBBhssdBBBBBBBssfBBBBM 3BBBBBBBssNBBBBBBssBBBBB- nnnnn",
"nnnn  BBBBBBBhssdNBBBBBBsssBBBBB <BBBBBBBBBBBBBBBBsssBBBB@ nnnnn",
"nnnn  NBBBBBNhssdBBBBBBBsssNBBBB :BBBBBBBBBBBBBBBBsssBBBNO nnnnn",
"nnnn  BBBBBBBksssBBBBBBBsssNBBBB @BBBBBBBBBBBBBBBBsssmBBB. nnnnn",
"nnnn  BBBBBBBkssdNBBBBBBsssBBBBB ONBBBBBBBBBBBBBBBsssfBBB@ nnnnn",
"nnnn  BBBBBBBMsMBBBBBBBBdssBBBBB OBBBBBBBBBBBBBBBBssssBBB# cnnnn",
"nnnn  BBBBBBBBBBBBBBBBBBkssNBBBB oBBBBBBBBBBBBBBBBsssdNBB. tnnnn",
"nnnn  BBBBBBBBBBBBBBBBBBMssBBBBB  BBBBBBBBBBBBBBBBssshBBB  9cnnn",
"nnnn  BBBBBBBBBBBBBBBBBBBssBBBBB  BBBBBBBBBBBBBBBBsssNBBB  9znnn",
"nnnn  BBBBBBBBBBBBBBBBBBBfMBBBBB  BBBBBBBBBBBBBBBNfssBBBB  0nnnn",
"nnnn  NBBBBNBBBBBBBBBBBNBBBBBBBB  NNBBBBBBBBBBBBBBNdsNBBB  unnnn",
"nnnn  NNBBBNBBBBNNBBBBBNBBBNBBNN  BBBBBBBBBBBBBBBBNNBBBNB  cnnnn",
"nnnn  MMMmmmmmMmmmmmMMMkMmmkMmmm  MMmmmmmmjjjghffdsssa444 onnnnn",
"nnnq                                                      8nnnnn",
"nnnq8>;>>>>>>>>,77778888888888888888888888888888888888888qqnnnnn",
"nnnqqqqqq8qqqqqqqqqqqqqqqqqqqqqqqqqqqqqqqqqqqqqqqqqqqqqqqqqcnnnn",
"nnnqqqqqqqqqqqqqqqqqqqqqqqqqqqqqqqqqqqqqqqqqqqqqqqqqqqqqqwqbnnnn",
"nnnqqqqqqqqqqqqqqqqqqqqqqqqqqqqqqqqqqqqqqqqqqqqqqqqqqqqqqqqbnnnn",
"nnniqqqqqqqqqqqqqqqqqqqqqqqqqqqqqqqqqqqqqqqqqqqqqqqqqqqqqqqnnnnn",
"nnnneqqqqqqqqqqqqqqqqqqqqqqqqqqqqqqqqqqqqqqqqqqqqqqqqqqqqqlnnnnn",
"nnnnnnpqqqqqqqqqqqqqqqqqqqqqqqqqqqqqqqqqqqqqqqqqqqqqqqqqqznnnnnn",
"nnnnnnnniqqqqqqqqqqqqqqqqqqqqqqqqqqqqqqqqqqqqqqqqqqwiznnnnnnnnnn"
};
