/* XPM */
static char *result[] = {
/* columns rows colors chars-per-pixel */
"64 64 96 2 ",
"   c #0A0A0A",
".  c #110F0D",
"X  c #0E110D",
"o  c #14110F",
"O  c #161310",
"+  c #1B1512",
"@  c #141C12",
"#  c #1E1E1A",
"$  c #241B15",
"%  c #2A1F18",
"&  c #14210F",
"*  c #172114",
"=  c #192315",
"-  c #1C2A18",
";  c #2D211A",
":  c #33251D",
">  c #22341C",
",  c #24391E",
"<  c #3D2B21",
"1  c #34342C",
"2  c #422E23",
"3  c #473225",
"4  c #4C3527",
"5  c #4D3528",
"6  c #53392A",
"7  c #244A19",
"8  c #27501A",
"9  c #29531B",
"0  c #2D581F",
"q  c #2E4A25",
"w  c #304D27",
"e  c #314F28",
"r  c #2F5423",
"t  c #2F5A21",
"y  c #315326",
"u  c #325E23",
"i  c #35552B",
"p  c #37592C",
"a  c #395C2D",
"s  c #356126",
"d  c #376429",
"f  c #39662A",
"g  c #3C6B2D",
"h  c #3D6531",
"j  c #3F6C31",
"k  c #5E412F",
"l  c #49483D",
"z  c #5E4130",
"x  c #644432",
"c  c #6C4A36",
"v  c #704C37",
"b  c #744F39",
"n  c #75503A",
"m  c #7C543D",
"M  c #426D34",
"N  c #447335",
"B  c #477837",
"V  c #477738",
"C  c #487738",
"Z  c #477838",
"A  c #4A7B3A",
"S  c #4F7A40",
"D  c #5D764B",
"F  c #6C6B5A",
"G  c #82583F",
"H  c #855A41",
"J  c #8B5E44",
"K  c #8E6045",
"L  c #50803F",
"P  c #558343",
"I  c #588546",
"U  c #5E894B",
"Y  c #628C4E",
"T  c #658E50",
"R  c #6A9255",
"E  c #71975B",
"W  c #88A76E",
"Q  c #91AE75",
"!  c #96B17A",
"~  c #A4BC86",
"^  c #A8BE89",
"/  c #B1C591",
"(  c #B9CA97",
")  c #BFCF9D",
"_  c #C5D3A2",
"`  c #C8D5A3",
"'  c #CDD9A8",
"]  c #D1DCAB",
"[  c #D6DFB0",
"{  c #DBE4B4",
"}  c #E3E5BB",
"|  c #EBEFC1",
" . c #ECF0C2",
".. c #F6F6CA",
"X. c #FBFACE",
"o. c #FFFDD2",
/* pixels */
"A A A A A A A A A A A A A A A A A A A A A A A A A A A A A A A A A A A A A A A A A A A A A A A A A A A A A A A A A A A A A A A A ",
"A A A A A A A A A A A A A A A A A A A A A A A A A A A A A A A A A A A A A A A A A A A A A A A A A A A A A A A A A A A A A A A A ",
"A A A A A A A A A A A A A A A A A A A A A A A A A A A A A A A A A A A A A A A A A A A A A A A A A A A A A A A A A A A A A A A A ",
"A A A A A A A A A A A A A A A A A A A A A A A A A A A A A A A A A A A A A A A A A A A A A A A A A A A A A A A A A A A A A A A A ",
"A A A A A A A A A A A A A A I E E U A A A A A A A A A A A A A A A A A A A A A A A A A A A A A A A A A A A t 0 j B L B L A A A A ",
"A A A A A A A P A A A A A R ' X.o. .! P A A A A A A A A A A N M h h N A A A A A A A A A N g g M N A A s 9 9 9 9 9 N B N f f g N ",
"A A A A A A P E ^ ( ~ U A _ F o     1 W A A A A a *                       - A A A A A X           , B 9 9 9 9 9 9 0 M 0 9 9 9 d ",
"A A A A A A W { o.o.o.{ D               # M               O 3 n m m x +       > M                     8 9 9 9 8 9 9 0 9 9 9 9 9 ",
"A A A A A I ` o.o.o.o.l     H J K K J         . b K K K K K K K K K K K K 6         $ J K K K K K 2     7 9 9 9 9 9 9 9 9 9 9 9 ",
"A A A A A T { o.o.o.#     K K K K K K K .   J K K K K K K K K K K K K K K K K H % c K K K K K K K K H X   9 9 9 9 9 9 9 9 9 9 9 ",
"A A A A A I ' o.o.}     K K K K K K K K J K K K K K K K K K K K K K K K K K K K K K K K K K K K K K K m     9 9 9 9 9 9 9 9 9 9 ",
"A A A A A A Q o.o.O   J K K K K K K K K K K K K K K K K K K K K K K K K K K K K K K K K K K K K K K J J     9 9 9 t 9 9 9 9 9 u ",
"A A A A A A I ^ o.    K K K K K K K K K K K K K K K K K K K K K K K K K K K K K K K K K K K K K K K K K m X & 9 9 g d 0 9 9 u B ",
"A A A A A A A P E   ; K K K K K K K K K K K K K K K K K K K K K K K K K K K K K K K K K K K K K K K K K J     0 g B B g g j j L ",
"A A A A A A A A V   4 K K K K K K K K K K K K K K K K K K K K K K K K K K K K K K K K K K K K K K K K K J   X g B L L B L L L L ",
"A A A A A A A A A   . K K K K K K K K K K K K K K K K K K K K K K K K K K K K K K K K K K K K K K K K K J   X B L B j L B j L B ",
"A A A A A A A A A     J J J K K K K K K K K K K K K K K K K K K K K K K K K K K K K K K K K K K K K K K     N A A A A A A A A A ",
"A A A A A A A A A i   < J J K K K K K K K K K K K K K K K K K K K K K K K K K K K K K K K K K K K K K o   @ A A A A A A A A A A ",
"A A A A A A A A A A     % J J K K K K K K K K K K K K K K K K K K K K K K K K K K K K K K K K v n +       A A A A A A A A A A A ",
"A A A A A A A A A A C       H K K K K K K K K K K K K K K K K K K K K K K K K J K K K K K K J         7 A A A A A A A A A A A A ",
"A A A A A A A A A A A A       K K K K K K J     H J K K K K K K K K K K K J     J K K K K K K 6     A A A A A A A A A A A A A A ",
"A A A A A A A A A A A @   O K K K K K K K +       K K K K K K K K K K K J .       K K K K K K K c     A A A A A A A A A A A A A ",
"A A A A A A A A A A A     K K K K K K K K       . J K K K z     v K K K K       O K K K K K K K K o   f A A A A A A A A A A A A ",
"A A A A A A A A A A -   H K K K K K K K K J . O J K K K K         K K K J H   . J K K K K K K K K K     A A A A A A A A A A A A ",
"A A A A A A A A A A     K K K K K K K K K K K K K K K K K       5 K K K K K K K K K K K K K K K K K     A A A U T A A A A A A A ",
"A A A A A A A A A A     K K K K K K K K K K K K K K K K K K     K K K     K K K K K K K K K K K K K     A I ~ ] ] / T A A A A A ",
"A A A A A A A A A A     K K K K K K K K J K J < K K K K K K     K K K   + K K K K K K K K K K K K K .   P _ o.o.o.o.) P A A A A ",
"A A A A A A A A A A ,   % K K K K K K K J J H   c K K K J H     K K K K K K .   K K K K K K K K K K     ! o.o.o.o.o...R A A A A ",
"A A A A A A A A A A A       H J K K K K K K K       $ $         o J K K K $   . K K K K K K J J K +   * ' o.o.o.o.o.o.E A A A A ",
"A A A A A A A A A A A A @     5 K K K K K K K K .           J                 J K K K K K K K c       A [ o.o.o.o.o.o.Y A A A A ",
"A A A A A A A A A A A A A y   O K K K K K K K K J K K K J K K K J :       x K K K K K K K K K       A A _ o.o.o.o.o.{ A A A A A ",
"A A A A A A A A A A A A ,     m K K K K K K K K K K K K J K K K J J K J J K K K K K K K K K K J <     N Q ..o.o.o...~ A A A A A ",
"A A A A A A A A A A A =     K K K K K K K K K K K K K K K K K K K K K K K K K K K K K K K K K K K m     S ! | o.| ~ P A A A A A ",
"A A A A A A A A A A q     K K K K K K K K K K K K K K K K K K K K K K K K K K K K K K K K K K K K K H     A I T P V A A A A A A ",
"A A A A A A A A A C     J K K K K K K K K K K K K K K K K K K K K K K K K K K K K K K K K K K K K K J v     A A A A A A A A A A ",
"A A A A A A A A A     J K K K K K K K K K K K K K K K K K K K K K K K K K K K K K K K K K K K K K K K J .   h A A A A A A A A A ",
"A A A A A A A A N   $ J K K K K K K K K K K K K K K K K K K K K K K K K K K K K K K K K K K K K K K K K K     A A A A A A A A A ",
"A A A A A A A A     J J K K K K K K K K K K K K K K K K K K K K K K K K K K K K K K K K K K K K K K K K K     A A A A A A A A A ",
"A A A A A A A A     K K K K K K K K K K K K K K K K K K K K K K K K K K K K K K K K K K K K K K K K K K K     A A A A A A A A A ",
"A A A A A A A A   < K K K K K K K K K K K K K K K K K K K K K K K K K K K K K K K K K K K K K K K K K K K .   A A A A A A A A A ",
"A A A A A A A h   m K K K K K K K K K K K K K K K K K K K K K K K K K K K K K K K K K K K K K K K K K K K     A A A A A A A A A ",
"A A A A A A A M   6 K K K K K J K K K K K K K K K K K K K K K K K K K K K K K K K K K K K K K K K K K K K     A A A A A A A A A ",
"A A A A A A A A     n J K K K + K K K K K K K K K K K K K K K K K K K K K K K K K K K K K K K J K K K K O   h A A A A A A A A A ",
"A A A A A A A A N       +       J K K K K K K K K K K K K K K K K K K K K K K K K K K K K K K     m c       A A A A A A A A A A ",
"A A A A A A A A A C             K K K K K K K K K K K K K K K K K K K K K K K K K K K K K K K +           A A A A A A A A A A A ",
"A A A A A A A A A A A A A A     K K K K K K K K K K K K K K K K K K K K K K K K K K K K K K K K   X j A A A A A A A A A A A A A ",
"A A A A A A A A A A A A A A     K K K K K K K K K K K K K K K K K K K K K K K K K K K K K K K K     j N B A A A N A A A A A A A ",
"A A A A A A A A A A A A A A     K K K K K K K K K K K K K K K K K K K K K K K K K K K K K K K K     9 0 g V N u 0 0 d V A A A A ",
"A A A A A A A A A A A A A A     K K K K K K K K K K K K K K K K K K K J K K K K K K K K K K K K     r 9 0 j 0 9 9 9 9 f A A A A ",
"A A A A A A A A A A A A A p     K K K K K K K K K K K K K J K K K K K J K K K K K K K K K K K K     i i y t 9 9 9 9 9 0 B A A A ",
"A A A A A A A A A A C p i i     K K K K K K K K K K K c                   G K K K K K K K K K K     i i i i r 9 9 8 9 0 B A A A ",
"A A A A A A A A A i i i i i     K K K K K K K K K H           @ # = @       x J K K K K K K K K     i i i i i y 9 9 9 0 A A A A ",
"A A A A A A A M i i i i i i     K K K K K K K K K     @ i i i i i i i i y     6 K K K K K K K J     i i i i i i r 9 9 g A A A A ",
"A A A A A A A i i i i i i i *   K K K K K K K K O   w i i i i i i i i i i i     c K K K K K K .   q i i i i i i i 9 t B A A A A ",
"A A A A A A i i i i i i i i y   + K K K K K K H     i i i i i i i i i i i i i     v K K J K k     i i i i i i i i s N A A A A A ",
"A A A A A A i i i i i i i i i     o K K K K G     y i i i i i i i i i i i i i i       $ %       i i i i i i i i N A A A A A A A ",
"A A A A A A a i i i i i i i i i                 > i i i i i i i i i i i i i i i i @         X i i i i i i i i h B A A A A A A A ",
"A A A A A A A i i i i i i i i i i e         # i i i i i i i i i i i i i i i i i i i i i i i i i i i i i i i N A A A A A A A A A ",
"A A A A A A A A i i i i i i i i i i i i i i i i i i i i i i i i i i i i i i i i i i i i i i i i i i i i M A A A A A A A A A A A ",
"A A A A A A A A A Z i i i i i i i i i i i i i i i i i i i i i i i i i i i i i i i i i i i i i i i a A A A A A A A A A A A A A A ",
"A A A A A A A A A A A A N i i i i i i i i i i i i i i i i i i i i i i i i i i i i i i i i i M A A A A A A A A A A A A A A A A A ",
"A A A A A A A A A A A A A A A A N a i i i i i i i i i i i i i i i i i i i i i i a N A A A A A A A A A A A A A A A A A A A A A A ",
"A A A A A A A A A A A A A A A A A A A A A A A A A V A V V V V V V A A A A A A A A A A A A A A A A A A A A A A A A A A A A A A A ",
"A A A A A A A A A A A A A A A A A A A A A A A A A A A A A A A A A A A A A A A A A A A A A A A A A A A A A A A A A A A A A A A A "
};
