/* XPM */
static char *result[] = {
/* columns rows colors chars-per-pixel */
"64 64 127 2 ",
"   c #0A0A0A",
".  c #110E0D",
"X  c #0F150D",
"o  c #13120E",
"O  c #131F0F",
"+  c #131210",
"@  c #1B1412",
"#  c #131A11",
"$  c #181815",
"%  c #211615",
"&  c #251B16",
"*  c #2A1D1A",
"=  c #192415",
"-  c #192F13",
";  c #1E2E19",
":  c #1F3D16",
">  c #39281F",
",  c #21321B",
"<  c #24381E",
"1  c #3F2D22",
"2  c #422A27",
"3  c #442A28",
"4  c #492E2B",
"5  c #4A3427",
"6  c #543A2B",
"7  c #5E3936",
"8  c #6A332D",
"9  c #6E3630",
"0  c #613B37",
"q  c #723933",
"w  c #793E38",
"e  c #234417",
"r  c #264A19",
"t  c #28531B",
"y  c #2D581F",
"u  c #2B4423",
"i  c #2F4A26",
"p  c #2F5A21",
"a  c #325D24",
"s  c #35552B",
"d  c #37582C",
"f  c #3A5E2E",
"g  c #356226",
"h  c #376428",
"j  c #3B642D",
"k  c #3C6B2D",
"l  c #3E6431",
"z  c #3F6E30",
"x  c #434338",
"c  c #4A493E",
"v  c #5E4130",
"b  c #644432",
"n  c #6D4A36",
"m  c #7E423C",
"M  c #724E39",
"N  c #7C543D",
"B  c #416C33",
"V  c #457435",
"C  c #477837",
"Z  c #477638",
"A  c #4A7B3A",
"S  c #744641",
"D  c #7B4944",
"F  c #82443E",
"G  c #80573F",
"H  c #854740",
"J  c #874942",
"K  c #8B4B45",
"L  c #844E49",
"P  c #865B42",
"I  c #8B5E43",
"U  c #94524C",
"Y  c #98544E",
"T  c #925650",
"R  c #9B5750",
"E  c #9A5B55",
"W  c #A45D56",
"Q  c #8E6045",
"!  c #906247",
"~  c #916348",
"^  c #966A4F",
"/  c #976B51",
"(  c #A5615A",
")  c #AB635C",
"_  c #B0665F",
"`  c #A1765D",
"'  c #B16760",
"]  c #B46962",
"[  c #50803F",
"{  c #548243",
"}  c #588546",
"|  c #5E894B",
" . c #628C4E",
".. c #658E50",
"X. c #6A9255",
"o. c #71975B",
"O. c #7DA065",
"+. c #8F9376",
"@. c #B38C74",
"#. c #B68F78",
"$. c #B79079",
"%. c #BA947D",
"&. c #83A46A",
"*. c #88A76E",
"=. c #90A775",
"-. c #90AE75",
";. c #94B078",
":. c #BD9680",
">. c #BF9A83",
",. c #ABAB8D",
"<. c #A2BA84",
"1. c #ABBE8B",
"2. c #C09A84",
"3. c #ACC18C",
"4. c #B9CA97",
"5. c #BFCF9D",
"6. c #C8D5A3",
"7. c #CDD9A8",
"8. c #D1DCAC",
"9. c #DBE3B4",
"0. c #E3E6BB",
"q. c #E7ECBE",
"w. c #EBEFC1",
"e. c #ECF0C2",
"r. c #F2F0C8",
"t. c #FBFACE",
"y. c #FFFDD2",
/* pixels */
"A A A A A A A A A A A A A A A A A A A A A A A A A A A A A A A A A A A A A A A A A A A A A A A A A A A A A A A A A A A A A A A A ",
"A A A A A A A A A A A A A A A A A A A A A A A A A A A A A A A A A A A A A A A A A A A A A A A A A A A A A A A A A A A A A A A A ",
"A A A A A A A A A A A A A A A A A A A A A A A A A A A A A A A A A A A A A A A A A A A A A A A A A A A A A A A A A A A A A A A A ",
"A A A A A A A A A A A A A A A A A A A A A A A A A A A A A A A A A A A A A A A A A A A A A A A A A A A A A A A A A A A A A A A A ",
"A A A A A A A A A A A A A A { X.o.| A A A A A A A A A A A A A A A A A A A A A A A A A A A A A A A A A A A p y z C [ A [ A [ A A ",
"A A A A A A A A A A A A A X.7.y.y.w.;.{ A A A A A A A A A A A A A A A A A A A A A A A A V z k z V A A a t t t t y z A z h h z z ",
"A A A A A A { &.1.4.<. .[ 6.t.y.y.y.t.*.A A A A A A A A A A A A A A Z A A A A A A A [ z p t r t g V A t t t t t t p z y t t y a ",
"A A A A A A *.9.t.y.t.9.O.q.y.y.y.y.y.9.A A A l , #                   # l A A A A A A h e X         y t t t t t t t y t t t t y ",
"A A A A A } 6.y.y.y.y.y.9.e.y.y.y.y.0.5                                       B A A ,               t t t t t t t t t t t t t t ",
"A A A A A ..9.y.y.y.y.y.t.9.y.r.o           4 E _ ] ] ] ] ] ] ] ] ] ] ] L                         O p t t t t t t t t t t t t t ",
"A A A A A } 7.y.y.y.y.y.y.5.$       0 _ ] ] ] ] ] ] ] ] ] ] ] ] ] ] ] ] ] ] ] 4                 - t p t t t t t t t t t t t t t ",
"A A A A A A -.t.y.y.y.y.y.      _ ] ] _ ] S E ] ] ] ] ] ] ( ] ] ] ] ] ] ] ] ] ] ] S           : t t a t t t t t t p t t t t t a ",
"A A A A A A { 3.y.y.y.y.    7 ] ] ] ] 9 8 9 q ] ] ] _ 9 8 8 K ] ] ] ] ] ] ] ] ] ] ] _ %       t t t k g t t t t t k h t t t g z ",
"A A A A A A A { O.6.8.3.  @ ] ] _ _ 9 8 9 _ ] ] ] ) 8 8 9 ) ] ] ] ] ] ] ] ] ] ] ] ] ] ] _       t a z z h p t y k C C k k z z [ ",
"A A A A A A A A A A A     ] ] ] _ 8 9 Y _ ] ] ] ( 8 8 ) ] ] ] ] ] ] 9 8 ] ] ] ] ] ] ] ] ] ] S     X [ [ z z z z C [ [ [ [ [ [ [ ",
"A A A A A A A A A A A     ] ] ] 8 8 ) ] ] ] ] _ 8 8 ] _ ] ] ] ] ] 8 8 w ] ] ] ] ] ] ] ] ] ] ] ] X   X z [ C [ [ C C z [ C z [ C ",
"A A A A A A A A A A A   3 ] ] ] 8 K ] ] ] ] ] ] 8 Y ] ] ] ] ] ] 9 8 K ] ] ] ] 8 8 ] ] ] ] ] ] ] ' S     A A A A A A A A A A A A ",
"A A A A A A A A A A A     ] ] ] ] ] ] ] ] ] ] ] ] ] ] ] ] ] ] ] w q ] ] ] ] 8 8 J ] ] ] ] ] ] ] ] ] L     A A A A A A A A A A A ",
"A A A A A A A A A A A =               * D W ] ] ] ] ] ] ] ] ] ] ] ] ] ] ] q 8 F ] ] ] ] ] U W ] ] ] ] S     A A A A A A A A A A ",
"A A A A A A A A A A A A u                         D ] ] ] ] ] ] ] ] ] ] ] 8 8 ] ] ] ] ] ] 8 8 ] ] ] ] ] 3   = A A A A A A A A A ",
"A A A A A A A A A A A A V   + Q Q Q Q Q D 6 o           D ] ] ] ] ] ] ] ] ] ] ] ] ] ] ] ] q 8 ] ] ] ] ] ]     Z A A A A A A A A ",
"A A A A A A A A A A A A     I Q Q Q Q Q Q Q Q Q Q n         o _ ] ] ] ] ] ] ] ] ] ] ] ] ] W 8 ) ] ] ] ] ] ]     A A A A A A A A ",
"A A A A A A A A A A A A     Q Q Q Q Q Q Q Q Q Q Q Q Q Q v         ] ] ] ] ] ] ] ] ] ] ] ] ) 8 ) ] ] ] ] ] ] $   f A A A A A A A ",
"A A A A A A A A A A A u   n Q Q Q Q Q Q Q Q Q Q Q Q Q Q Q Q I         W ] ] ] ] ] ] ] ] ] W 8 ) ] ] ] ' ] ] ]     A A A A A A A ",
"A A A A A A A A A A A     Q Q Q Q Q Q Q Q Q Q Q Q Q Q Q Q Q Q Q I .     % ] ] ] ] ] ] ] ] K 8 _ ] ] ] 8 J ] ] 3   s A A A A A A ",
"A A A A A A A A A A A     Q Q Q Q >.$.$.Q Q Q Q Q Q Q Q Q Q Q Q I ! I       2 ] ] ] ] ] ] q 8 ] ] ] ] 8 m ] ] ]     ..A A A A A ",
"A A A A A A A A A A l   n Q Q Q >.2.2.2.$.Q Q Q Q Q Q Q Q Q Q Q ! I ! ! b       S ] ] ] ] 8 8 ] ] ] ] 8 H ] ] ] @   5.{ A A A A ",
"A A A A A A A A A A     Q Q Q I 2.2.2.2.>.Q Q Q Q Q Q Q Q Q Q Q I ! I ! I I b       _ ] ] 8 8 ] ] ] ( 9 W ] ] ] E   ,.X.A A A A ",
"A A A A A A A A A A     I I Q ` 2.2.2.2.~ Q Q Q Q Q Q Q Q Q Q Q ~ I ~ I ~ I ~ I @     4 ] 8 K ] ] ] w 8 ] ] ] ] ]   c o.A A A A ",
"A A A A A A A A A V   1 Q Q Q 2.2.2.2.%.Q Q Q Q Q Q Q Q Q Q Q Q I ~ I I I ~ I ~ I I     % ) ] ] ] ] 8 8 ] ] ] ] ]   x  .A A A A ",
"A A A A A A A A A i   P Q Q Q >.2.2.2.Q Q Q Q Q Q Q Q Q Q Q Q Q ~ G I ~ I ~ I ~ I ! Q     * ] ] ] ] 8 8 ] ] ] ] )   +.A A A A A ",
"A A A A A A A A A     Q Q Q / >.2.2.2.Q Q Q Q Q Q Q Q Q Q Q Q Q ~ ~ ~ I ! I ~ I ! I ! I     T ] ] ] q ] ] ] ] ] D   =.A A A A A ",
"[ C C [ [ C C [ C   . ! Q Q @.2.>.>.>.Q Q Q Q Q Q Q Q Q Q Q Q Q ~ G ! ! ! Q Q Q Q Q Q Q Q .   _ _ ] ] ] ] ] ] ] @   [ A A A A A ",
"C [ C C C [ C C A   . ~ Q Q :.2.>.>.>.I Q Q Q Q Q Q Q Q Q Q Q Q ~ ~ ~ ~ Q Q Q Q Q Q Q Q G n     _ ] ] ] ] ] ] ]     A A A A A A ",
"C [ [ C C [ [ C A   @ G Q Q $.2.>.2.$.I Q Q Q Q Q Q Q Q Q Q Q Q ~ ~ ~ G Q Q Q Q Q Q Q Q ~ Q >   & _ ] ] ] ] _ (   ; A A A A A A ",
"C C C [ C C C [ A   1 Q Q Q ^ 2.2.2.@.Q Q Q Q Q Q Q Q Q Q Q Q Q G ~ ! ! Q Q Q Q Q Q Q Q ! Q Q . . R ] ] ] _ _ %   Z A A A A A A ",
"[ C C [ [ C C C B   M G Q Q Q 2.2.>.Q Q Q Q Q Q Q Q Q Q Q Q Q Q Q Q Q Q Q Q Q Q Q Q Q Q Q Q Q ~       _ _ ] _   . A A A A A A A ",
"C [ C C C [ [ C B   G ~ Q Q Q ~ @.Q Q Q Q Q Q Q Q Q Q Q Q Q Q Q Q Q Q Q Q Q Q Q Q Q Q Q Q Q Q ~ &     _ ] ]     Z A A A A A A A ",
"C [ [ C C C [ C x . G G Q Q Q Q Q Q Q Q Q Q Q Q Q Q Q Q Q Q Q Q Q Q Q Q Q Q Q Q Q Q Q Q Q Q ~ G         .     ; A A A A A A A A ",
"C C C [ [ C C [ r o G ~ Q Q Q Q Q Q Q Q Q Q Q Q Q Q Q Q Q Q Q Q Q Q Q Q Q Q Q Q Q Q Q Q Q Q G     C .       d A A A A A A A A A ",
"[ C z [ [ V [ V ,   G ! G ~ Q Q Q Q Q Q Q Q Q Q Q Q Q Q Q Q Q Q Q Q Q Q Q Q Q Q Q Q Q Q ~ G @   < j A A A A A A A A A A A A A A ",
"C [ [ [ V [ [ C -   ~ ! ~ ~ Q Q Q Q Q Q Q Q Q Q Q Q Q Q Q Q Q Q Q Q Q Q Q Q Q Q Q Q Q Q G > . o d d s s f A A A A A A A A A A A ",
"C C [ z C [ C C &   ~ G G Q Q Q Q Q Q Q Q Q Q Q Q Q Q Q Q Q Q Q Q Q Q Q Q Q Q Q Q Q Q Q M     s d d s s s s s A A A A A A A A A ",
"[ C C [ C C C [ < . ~ ! ~ ~ 2.2.~ Q Q Q Q Q Q Q Q Q Q Q Q Q Q Q Q Q Q Q Q Q Q Q Q Q Q G     s s s s s s s s s s B A A A A A A A ",
"A A C [ [ [ C C B   M ~ Q ` 2.2.$.Q Q Q Q Q Q Q Q Q Q Q Q Q Q Q Q Q Q Q Q Q ! Q Q Q G     i s s s s s s s s s s s s A A A A A A ",
"A A A C C C C [ V   > G Q @.2.2.@.Q Q Q Q Q Q Q Q Q Q Q Q Q Q Q Q Q Q Q Q Q ~ ~ G F     s s s s s s s s s s s s s s s A A A A A ",
"A A [ C C C C [ A .   Q Q ` >.>.^ Q Q Q Q Q Q Q Q Q Q Q Q Q Q Q Q Q Q Q Q Q Q G 1     s s s s s s s s s s s s s s s s V A A A A ",
"A A C C [ [ C C a     Q Q ! #.#.Q Q Q Q Q Q Q Q Q Q Q Q Q Q Q Q Q Q Q Q Q Q Q . . . s s s s s s s s s s s s s s s s s d A A A A ",
"A A A A A A A s s <   v ! I ! I I I ~ I ~ I ~ ! ! ~ ! ! Q Q Q Q I ! I ! ! I     . s s s s s s s s s s s s s s s s s s s A A A A ",
"A A A A A A z s s s     ! ! I ! ~ I I ~ G ~ ~ ~ G ~ Q ! Q Q Q Q ! I ! I b     # s s s s s s s s s s s s s s s s s s s s C A A A ",
"A A A A A A s s s s ,   & Q Q Q I ~ I ~ ~ G ~ G Q Q Q Q Q Q Q Q ! I I .     u s s s s s s s s s s s s s s s s s s s s s V A A A ",
"A A A A A A s s s s s   X D Q Q ! I ~ I ~ ~ ~ ~ Q Q Q Q Q Q Q ! ! 2       s s s s s s s s s s s s s s s s s s s s s s s A A A A ",
"A A A A A C s s s s s s     P Q ~ I ~ ~ ! I I ! Q Q ~ Q Q Q G 8       e s s s s s s s s s s s s s s s s s s s s s s s B A A A A ",
"[ A A A A A s s s s s s i     5 I I I I I ! ! I Q Q ~ G Q *       - s d s s s s s s s s s s s s s s s s s s s s s s p C A A A A ",
"C C A A A A a a s s s s s s       + N ! ! I I ! Q F >   .     ; s s s s s s s s s s s s s s s s s s s s s s s s s a V A A A A A ",
"C [ A A A A C a s s s s s s s ;                 .   .     s s s s s s s s s s s s s s s s s s s s s s s s s s s C A A A A A A A ",
"A A A A A A A j s s s s s s s s s s < @         . ; s s s s s s s s s s s s s s s s s s s s s s s s s s s d j A A A A A A A A A ",
"A A A A A A A A l s s s s s s s s s f s s s s s s s s s s s s s s s s s s s s s s s s s s s s s s s s d d A A A A A A A A A A A ",
"A A A A A A A A A Z s s s s s s s s s s s s s s s s s s s s s s s s s s s s s s s s s s s s s s s s j A A A A A A A A A A A A A ",
"A A A A A A A A A A A V s s s s s d s s s s s s s s s s s s s s s s s s s s s s s s s s s s d s Z A A A A A A A A A A A A A A A ",
"A A A A A A A A A A A A A A f s s s s s s s s s s s s s s s s s s s s s s s s s d s s s f A A A A A A A A A A A A A A A A A A A ",
"A A A A A A A A A A A A A A A A A Z f s s s s d s s s s s s s s s s s s s s s d B Z A A A A A A A A A A A A A A A A A A A A A A ",
"A A A A A A A A A A A A A A A A A A A A A A A Z Z B B B B f B B Z Z A A A A A A A A A A A A A A A A A A A A A A A A A A A A A A ",
"A A A A A A A A A A A A A A A A A A A A A A A A A Z Z Z A A Z A A A A A A A A A A A A A A A A A A A A A A A A A A A A A A A A A "
};
