/* XPM */
static char *_4409f8487cd4036dfd55041a5df0ca2XpoWEelQZ8Ed2xK4[] = {
/* columns rows colors chars-per-pixel */
"64 64 98 2 ",
"   c #28531B",
".  c #29541B",
"X  c #29531C",
"o  c #2A551C",
"O  c #2C571E",
"+  c #2D581F",
"@  c #2F5A21",
"#  c #305B21",
"$  c #315D23",
"%  c #335F24",
"&  c #336025",
"*  c #366327",
"=  c #376328",
"-  c #376428",
";  c #39672A",
":  c #3A682B",
">  c #3B692C",
",  c #3C6B2D",
"<  c #3E6D2F",
"1  c #3F6E30",
"2  c #406F31",
"3  c #427233",
"4  c #437334",
"5  c #447334",
"6  c #467636",
"7  c #477837",
"8  c #477838",
"9  c #4A7B3A",
"0  c #4C7C3B",
"q  c #4D7D3D",
"w  c #507F3F",
"e  c #50803F",
"r  c #528141",
"t  c #548243",
"y  c #568344",
"u  c #568444",
"i  c #588546",
"p  c #5C8849",
"a  c #5F8A4C",
"s  c #618B4D",
"d  c #638D4F",
"f  c #658E50",
"g  c #679052",
"h  c #689154",
"j  c #6D9457",
"k  c #71975B",
"l  c #72985B",
"z  c #74995D",
"x  c #7B9E63",
"c  c #7DA065",
"v  c #80A268",
"b  c #87A76D",
"n  c #88A76E",
"m  c #8BAA71",
"M  c #90AE75",
"N  c #94B078",
"B  c #98B37C",
"V  c #99B47C",
"C  c #9CB67F",
"Z  c #9EB780",
"A  c #9FB881",
"S  c #A2BA84",
"D  c #A5BD87",
"F  c #A8BE89",
"G  c #ABC18B",
"H  c #ACC18C",
"J  c #B1C591",
"K  c #B9CB97",
"L  c #BACB98",
"P  c #BDCE9B",
"I  c #BECE9C",
"U  c #C2D19F",
"Y  c #C4D3A0",
"T  c #C6D4A2",
"R  c #C8D5A3",
"E  c #C8D6A4",
"W  c #CDD9A8",
"Q  c #D0DBAB",
"!  c #D1DCAB",
"~  c #D2DDAC",
"^  c #D6DFB0",
"/  c #D7E0B0",
"(  c #D8E1B1",
")  c #DDE5B6",
"_  c #E0E7B8",
"`  c #E5EABC",
"'  c #E7ECBE",
"]  c #E8ECBE",
"[  c #EBEFC1",
"{  c #ECF0C2",
"}  c #F2F3C7",
"|  c #F2F4C7",
" . c #F3F4C8",
".. c #F7F7CB",
"X. c #FAFACE",
"o. c #FCFBCF",
"O. c #FCFBD0",
"+. c #FFFDD2",
/* pixels */
"9 9 9 9 9 9 9 9 9 9 9 9 9 9 9 9 9 9 9 9 9 9 9 9 9 9 9 9 9 9 9 9 9 9 9 9 9 9 9 9 9 9 9 9 9 9 9 9 9 9 9 9 9 9 9 9 9 9 9 9 9 9 9 9 ",
"9 9 9 9 9 9 9 9 9 9 9 9 9 9 9 9 9 9 9 9 9 9 9 9 9 9 9 9 9 9 9 9 9 9 9 9 9 9 9 9 9 9 9 9 9 9 9 9 9 9 9 9 9 9 9 9 9 9 9 9 9 9 9 9 ",
"9 9 9 9 9 9 9 9 9 9 9 9 9 9 9 9 9 9 9 9 9 9 9 9 9 9 9 9 9 9 9 9 9 9 9 9 9 9 9 9 9 9 9 9 9 9 9 9 9 9 9 9 9 9 9 9 9 9 9 9 9 9 9 9 ",
"9 9 9 9 9 9 9 9 9 9 9 9 9 9 9 9 9 9 9 9 9 9 9 9 9 9 9 9 9 9 9 9 9 9 9 9 9 9 9 9 9 9 9 9 9 9 9 9 9 9 9 9 9 9 9 9 9 9 9 9 9 9 9 9 ",
"9 9 9 9 9 9 9 9 9 9 9 9 9 q y j k p q 9 9 9 9 9 9 9 9 9 9 9 9 9 9 9 9 9 9 9 9 9 9 9 9 9 9 9 9 9 9 9 9 9 9 # + 2 9 9 9 9 9 9 9 9 ",
"9 9 9 9 9 9 9 9 9 9 9 9 9 h W X.+.{ N r 9 9 9 9 9 9 9 9 9 9 9 9 9 9 9 9 9 9 9 9 9 9 9 9 6 < , 1 6 9 9 *         o 4 9 4 ; ; , 6 ",
"9 9 9 9 9 9 r v F K S s e T o.+.+.+.X.b 9 9 9 9 9 9 9 9 9 9 9 9 9 9 9 9 9 9 9 9 9 9 9 3 % o   o * 6 9             @ 3 @     o * ",
"9 9 9 9 9 9 n ) +.+.o.( c ' +.+.+.+.+.^ r 9 9 9 9 9 9 9 9 9 9 9 9 9 9 9 9 9 9 9 9 9 9 *           ; @               @         o ",
"9 9 9 9 9 i R +.+.+.+.+.( [ +.+.+.+.+.} f 9 9 9 9 9 9 9 9 9 9 9 9 9 9 9 9 9 9 9 9 9 6 $           o o                           ",
"9 9 9 9 9 f ) +.+.+.+.+.o._ +.+.+.+.+.| j 9 9 9 9 9 9 9 9 9 9 9 9 9 9 9 9 9 9 9 9 9 6 $             $                           ",
"9 9 9 9 9 u Q +.+.+.+.+.+.I +.+.+.+.+.) i 9 9 9 9 9 9 9 9 9 9 9 9 9 9 9 9 9 9 9 9 9 9 *             $             o           o ",
"9 9 9 9 9 9 M X.+.+.+.+.+.M Y X.+.+.[ N 9 9 9 9 9 9 9 9 9 9 9 9 9 9 9 9 9 9 9 9 9 9 9 3 o           % O           # o         % ",
"9 9 9 9 9 9 u H X.+.+.+./ g d F T P m r 9 9 9 9 9 9 9 9 9 9 9 9 9 9 9 9 9 9 9 9 9 9 9 9 %         o ; = X       o > - o   o % 6 ",
"9 9 9 9 9 9 9 r v Y ~ K z q 9 q d p 9 9 9 9 9 9 9 9 9 9 9 9 9 9 9 9 9 9 9 9 9 9 9 9 9 9 5 % o   o * 6 6 * o   O : 7 6 3 < 3 6 9 ",
"9 9 9 9 9 9 9 9 9 9 9 9 9 9 9 9 9 9 9 9 9 9 9 9 9 9 9 9 9 9 9 9 9 9 9 9 9 9 9 9 9 9 9 9 9 6 2 , 1 6 9 9 9 4 3 6 9 9 9 9 9 9 9 9 ",
"9 9 9 9 9 9 9 9 9 9 9 9 9 9 9 9 9 9 9 9 9 9 9 9 9 9 9 9 9 9 9 9 9 9 9 9 9 9 9 9 9 9 9 9 9 9 9 9 9 9 9 9 9 9 9 9 9 9 9 9 9 9 9 9 ",
"9 9 9 9 9 9 9 9 9 9 9 9 9 9 9 9 9 9 9 9 9 9 9 9 9 9 9 9 9 9 9 9 9 9 9 9 9 9 9 9 9 9 9 9 9 9 9 9 9 9 9 9 9 9 9 9 9 9 9 9 9 9 9 9 ",
"9 9 9 9 9 9 9 9 9 9 9 9 9 9 9 9 9 9 9 9 9 9 9 9 9 9 9 9 9 9 9 9 9 9 9 9 9 9 9 9 9 9 9 9 9 9 9 9 9 9 9 9 9 9 9 9 9 9 9 9 9 9 9 9 ",
"9 9 9 9 9 9 9 9 9 9 9 9 9 9 9 9 9 9 9 9 9 9 9 9 9 9 9 9 9 9 9 9 9 9 9 9 9 9 9 9 9 9 9 9 9 9 9 9 9 9 9 9 9 9 9 9 9 9 9 9 9 9 9 9 ",
"9 9 9 9 9 9 9 9 9 9 9 9 9 9 9 9 9 9 9 9 9 9 9 9 9 9 9 9 9 9 9 9 9 9 9 9 9 9 9 9 9 9 9 9 9 9 9 9 9 9 9 9 9 9 9 9 9 9 9 9 9 9 9 9 ",
"9 9 9 9 9 9 9 9 9 9 9 9 9 9 9 9 9 9 9 9 9 9 9 9 9 9 9 9 9 9 9 9 9 9 9 9 9 9 9 9 9 9 9 9 9 9 9 9 9 9 9 9 9 9 9 9 9 9 9 9 9 9 9 9 ",
"9 9 9 9 9 9 9 9 9 9 9 9 9 9 9 9 9 9 9 9 9 9 9 9 9 9 9 9 9 9 9 9 9 9 9 9 9 9 9 9 9 9 9 9 9 9 9 9 9 9 9 9 9 9 9 9 9 9 9 9 9 9 9 9 ",
"9 9 9 9 9 9 9 9 9 9 9 9 9 9 9 9 9 9 9 9 9 9 9 9 9 9 9 9 9 9 9 9 9 9 9 9 9 9 9 9 9 9 9 9 9 9 9 9 9 9 9 9 9 9 9 9 9 9 9 9 9 9 9 9 ",
"9 9 9 9 9 9 9 9 9 9 9 9 9 9 9 9 9 9 9 9 9 9 9 9 9 9 9 9 9 9 9 9 9 9 9 9 9 9 9 9 9 9 9 9 9 9 9 9 9 9 9 9 9 9 9 9 9 9 9 9 9 9 9 9 ",
"9 9 9 9 9 9 9 9 9 9 9 9 9 9 9 9 9 9 9 9 9 9 9 9 9 9 9 9 9 9 9 9 9 9 9 9 9 9 9 9 9 9 9 9 9 9 9 9 9 9 9 9 9 9 9 p d q 9 9 9 9 9 9 ",
"9 9 9 9 9 9 9 9 9 9 9 9 9 9 9 9 9 9 9 9 9 9 9 9 9 9 9 9 9 9 9 9 9 9 9 9 9 9 9 9 9 9 9 9 9 9 9 9 9 9 9 9 9 u D ! ~ J d 0 9 9 9 9 ",
"9 9 9 9 9 9 9 9 9 9 9 9 9 9 9 9 9 9 9 9 9 9 9 9 9 9 6 7 9 9 9 9 9 9 9 9 9 9 9 9 9 9 9 9 9 9 9 9 9 9 9 9 t R o.+.+.X.I t 9 9 9 9 ",
"9 9 9 9 9 9 9 9 9 9 9 9 9 9 9 9 9 9 9 9 9 9 9 9 1 @ o + ; 9 9 9 9 9 9 9 9 9 9 9 6 6 9 9 9 9 9 9 9 9 9 9 V O.+.+.+.+.X.h 9 9 9 9 ",
"9 9 9 9 9 9 9 9 9 9 9 9 9 9 9 9 9 9 9 9 9 9 9 3 +       o ; 9 9 9 9 9 9 9 9 9 : $ $ - 6 9 9 9 9 9 9 9 9 W +.+.+.+.+.+.k 9 9 9 9 ",
"9 9 9 9 9 9 9 9 9 9 9 9 9 9 9 6 6 9 9 9 9 9 9 ;           + 6 9 9 9 9 9 9 9 %       o * 6 9 9 9 9 9 9 9 ^ +.+.+.+.+.X.a 9 9 9 9 ",
"9 9 9 9 9 9 9 9 9 9 9 9 9 9 1 ; * ; 6 9 9 9 9 *             3 9 9 9 9 9 9 =           o 3 9 9 9 9 9 9 9 T +.+.+.+.+._ q 9 9 9 9 ",
"9 9 9 9 9 9 9 9 9 9 9 9 9 < @       + 5 9 9 9 -             2 9 9 9 9 9 3               < 9 9 9 9 9 9 9 M ..+.+.+...C 9 9 9 9 9 ",
"9 9 9 9 9 9 9 9 9 9 9 9 7 &           @ 9 9 9 ,             , 9 9 9 9 9 $             o 3 9 9 9 9 9 9 9 t N [ +.{ C t 9 9 9 9 9 ",
"9 9 9 9 9 9 9 9 9 9 9 9 6 #             1 9 9 2             , 9 9 9 9 3 o             & 9 9 9 9 9 9 9 9 9 9 y d u 9 9 9 9 9 9 9 ",
"9 9 9 9 9 9 9 9 9 9 9 9 9 $             : 9 9 6 o           1 9 9 9 9 3             o 6 9 9 9 9 9 9 9 9 9 9 9 9 9 9 9 9 9 9 9 9 ",
"9 9 9 9 9 9 9 9 9 9 9 9 9 ,             , 9 9 9 * .       @ 6 9 9 9 9 8 o           < 9 9 9 9 9 9 9 9 9 9 9 9 9 9 9 9 9 9 9 9 9 ",
"9 9 9 9 9 9 9 9 9 9 9 9 9 9 %         + 3 9 9 9 6 - O o $ 3 9 9 9 9 9 9 ; o     o - 9 9 9 9 9 9 9 9 9 9 9 9 9 9 9 9 9 9 9 9 9 9 ",
"9 9 9 9 9 9 9 9 9 9 9 9 9 9 6 = o   + 1 9 9 9 9 9 9 6 6 9 9 9 9 9 9 9 9 9 , = * , 9 9 9 9 9 9 9 9 9 9 9 9 9 9 9 9 9 9 9 9 9 9 9 ",
"9 9 9 9 9 9 9 9 9 9 9 9 9 9 9 9 6 6 9 9 9 9 9 9 9 9 9 9 9 9 9 9 9 9 9 9 9 9 9 9 9 9 9 9 9 9 9 9 9 9 9 9 9 9 9 9 9 9 9 9 9 9 9 9 ",
"9 9 9 9 9 9 9 9 9 9 9 9 9 9 9 9 9 9 9 9 9 9 9 9 9 9 9 9 9 9 9 9 9 9 9 9 9 9 9 9 9 9 9 9 9 9 9 9 9 9 9 9 9 9 9 9 9 9 9 9 9 9 9 9 ",
"9 9 9 9 9 9 9 9 9 9 9 9 9 9 9 9 9 9 9 9 9 9 9 9 9 9 9 9 9 9 9 9 9 9 9 9 9 9 9 9 9 9 9 9 9 9 9 9 9 9 9 9 9 9 9 9 9 9 9 9 9 9 9 9 ",
"9 9 9 9 9 9 9 9 9 9 9 9 9 9 9 9 9 9 9 9 9 9 9 9 9 9 9 9 9 9 9 9 9 9 9 9 9 9 9 9 9 9 9 9 9 9 9 9 9 9 9 9 9 9 9 9 9 9 9 9 9 9 9 9 ",
"9 9 9 9 9 9 9 9 9 9 9 9 9 9 9 9 9 9 9 9 9 9 9 9 9 9 9 9 9 9 9 9 9 9 9 9 9 9 9 9 9 9 9 9 9 9 9 9 9 9 9 9 9 9 9 9 9 9 9 9 9 9 9 9 ",
"9 9 9 9 9 9 9 9 9 9 9 9 9 9 9 9 9 9 9 9 9 9 9 9 9 9 9 9 9 9 9 9 9 9 9 9 9 9 9 9 9 9 9 9 9 9 9 9 9 9 9 9 9 9 9 9 9 9 9 9 9 9 9 9 ",
"9 9 9 9 9 9 9 9 9 9 9 9 9 9 9 9 9 9 9 9 9 9 9 9 9 9 9 9 9 9 9 9 9 9 9 9 9 9 9 9 9 9 9 9 9 9 9 9 9 9 9 9 9 9 9 9 9 9 9 9 9 9 9 9 ",
"9 9 9 9 9 9 9 9 9 9 9 9 9 9 9 9 9 9 9 9 9 9 9 9 9 9 9 9 9 9 9 9 9 9 9 9 9 9 9 9 9 9 9 9 9 9 9 9 9 9 9 9 9 9 9 9 9 9 9 9 9 9 9 9 ",
"9 9 9 9 9 9 9 9 9 9 9 9 9 9 9 9 9 9 9 9 9 u d t 9 9 9 9 9 9 9 9 9 9 9 9 9 9 9 9 9 9 9 9 9 9 9 9 6 < < 5 9 9 9 9 6 6 9 9 9 9 9 9 ",
"9 9 9 9 9 9 9 9 9 9 9 9 9 9 9 9 9 9 9 w z D P G l q 9 9 9 9 9 9 9 9 9 9 9 9 6 6 9 9 9 9 9 9 9 , O     o , 9 5 $ + @ ; 8 9 9 9 9 ",
"9 9 9 9 9 9 9 9 9 9 9 9 9 9 9 9 9 9 9 z W X.+.o.( x 9 9 9 9 9 9 9 9 9 9 9 : % $ - 6 9 9 9 9 4 o         o 1 O       o - 9 9 9 9 ",
"9 9 9 9 9 9 9 9 9 9 9 9 9 9 9 9 9 9 9 F o.+.+.+.+.W q 9 9 9 9 9 9 9 9 9 ; o       $ 6 9 9 9 :             @           @ 6 9 9 9 ",
"9 9 9 9 9 9 9 9 9 9 9 9 9 9 9 9 9 9 9 U +.+.+.+.+.X.x 9 9 9 9 9 9 9 9 6 +           ; 9 9 9 =             o           O 6 9 9 9 ",
"9 9 9 9 9 9 9 9 9 9 9 9 9 9 9 9 9 9 9 U +.+.+.+.+.+.L 9 9 9 9 9 9 9 9 6 o           o 6 9 9 ;             o           @ 9 9 9 9 ",
"9 9 9 9 9 9 9 9 9 9 9 9 9 9 9 9 9 9 9 Z +.+.+.+.+.+.~ 9 9 9 9 9 9 9 9 9 +             ; 9 9 <             o           , 9 9 9 9 ",
"9 9 9 9 9 9 9 9 9 9 9 9 9 9 9 9 9 9 9 d ` +.+.+.+.+.E 9 9 9 9 9 9 9 9 9 *             # 9 9 6 o         o * o       @ 9 9 9 9 9 ",
"9 9 9 9 9 9 9 9 9 9 9 9 9 9 9 9 9 9 9 0 x  .+.+.+. .B 9 9 9 9 9 9 9 9 9 3 o           @ 6 9 9 ; o     o ; 7 ; @ + % 6 9 9 9 9 9 ",
"9 9 9 9 9 9 9 9 9 9 9 9 9 9 9 9 9 9 9 9 q k W ] ) A t 9 9 9 9 9 9 9 9 9 9 =           $ 8 9 9 9 , * * , 9 9 9 6 6 9 9 9 9 9 9 9 ",
"9 9 9 9 9 9 9 9 9 9 9 9 9 9 9 9 9 9 9 9 9 9 q d p 9 9 9 9 9 9 9 9 9 9 9 9 9 %       O < 9 9 9 9 9 9 9 9 9 9 9 9 9 9 9 9 9 9 9 9 ",
"9 9 9 9 9 9 9 9 9 9 9 9 9 9 9 9 9 9 9 9 9 9 9 9 9 9 9 9 9 9 9 9 9 9 9 9 9 9 9 < = ; 3 9 9 9 9 9 9 9 9 9 9 9 9 9 9 9 9 9 9 9 9 9 ",
"9 9 9 9 9 9 9 9 9 9 9 9 9 9 9 9 9 9 9 9 9 9 9 9 9 9 9 9 9 9 9 9 9 9 9 9 9 9 9 9 9 9 9 9 9 9 9 9 9 9 9 9 9 9 9 9 9 9 9 9 9 9 9 9 ",
"9 9 9 9 9 9 9 9 9 9 9 9 9 9 9 9 9 9 9 9 9 9 9 9 9 9 9 9 9 9 9 9 9 9 9 9 9 9 9 9 9 9 9 9 9 9 9 9 9 9 9 9 9 9 9 9 9 9 9 9 9 9 9 9 ",
"9 9 9 9 9 9 9 9 9 9 9 9 9 9 9 9 9 9 9 9 9 9 9 9 9 9 9 9 9 9 9 9 9 9 9 9 9 9 9 9 9 9 9 9 9 9 9 9 9 9 9 9 9 9 9 9 9 9 9 9 9 9 9 9 ",
"9 9 9 9 9 9 9 9 9 9 9 9 9 9 9 9 9 9 9 9 9 9 9 9 9 9 9 9 9 9 9 9 9 9 9 9 9 9 9 9 9 9 9 9 9 9 9 9 9 9 9 9 9 9 9 9 9 9 9 9 9 9 9 9 ",
"9 9 9 9 9 9 9 9 9 9 9 9 9 9 9 9 9 9 9 9 9 9 9 9 9 9 9 9 9 9 9 9 9 9 9 9 9 9 9 9 9 9 9 9 9 9 9 9 9 9 9 9 9 9 9 9 9 9 9 9 9 9 9 9 ",
"9 9 9 9 9 9 9 9 9 9 9 9 9 9 9 9 9 9 9 9 9 9 9 9 9 9 9 9 9 9 9 9 9 9 9 9 9 9 9 9 9 9 9 9 9 9 9 9 9 9 9 9 9 9 9 9 9 9 9 9 9 9 9 9 "
};
