/* XPM */
static char *result[] = {
/* columns rows colors chars-per-pixel */
"64 64 95 2 ",
"   c #0A0A0A",
".  c #110F0D",
"X  c #0E120D",
"o  c #11180F",
"O  c #111710",
"+  c #1C1612",
"@  c #131A10",
"#  c #14230F",
"$  c #152410",
"%  c #192615",
"&  c #172812",
"*  c #1B2B16",
"=  c #1E2E1A",
"-  c #1B3015",
";  c #1F3718",
":  c #21361A",
">  c #233C1B",
",  c #282823",
"<  c #3C2B20",
"1  c #283F20",
"2  c #33342C",
"3  c #583D2D",
"4  c #693F27",
"5  c #26431D",
"6  c #29461F",
"7  c #27511A",
"8  c #29531B",
"9  c #2D581F",
"0  c #2A4323",
"q  c #2C4C22",
"w  c #2E5023",
"e  c #2F5A21",
"r  c #325527",
"t  c #325E23",
"y  c #35552B",
"u  c #37582C",
"i  c #395D2E",
"p  c #356226",
"a  c #376428",
"s  c #39652B",
"d  c #3D6B2D",
"f  c #3F6732",
"g  c #3F6B31",
"h  c #434838",
"j  c #6B4129",
"k  c #71462E",
"l  c #714D38",
"z  c #7E533B",
"x  c #416C33",
"c  c #457335",
"v  c #477837",
"b  c #477738",
"n  c #477838",
"m  c #4A7B3A",
"M  c #577C46",
"N  c #8A5D42",
"B  c #8E6045",
"V  c #50803F",
"C  c #558343",
"Z  c #588546",
"A  c #5E894B",
"S  c #628C4E",
"D  c #668F51",
"F  c #679052",
"G  c #6A9255",
"H  c #71975B",
"J  c #74995D",
"K  c #7B8265",
"L  c #7DA065",
"P  c #83A46A",
"I  c #88A76E",
"U  c #91AF76",
"Y  c #94B078",
"T  c #9BB57E",
"R  c #A4BC86",
"E  c #A8BE89",
"W  c #ACC18C",
"Q  c #B1C591",
"!  c #B9CB97",
"~  c #BFCF9D",
"^  c #C5D4A2",
"/  c #C8D5A3",
"(  c #CDD9A8",
")  c #D1DCAC",
"_  c #D6DFB0",
"`  c #D7E0B0",
"'  c #DBE3B4",
"]  c #E0E7B8",
"[  c #E7ECBE",
"{  c #EBEFC1",
"}  c #ECF0C2",
"|  c #F2F4C7",
" . c #F7F7CB",
".. c #FBFACE",
"X. c #FFFDD2",
/* pixels */
"m m m m m m m m m m m m m m m m m m m m m m m m m m m m m m m m m m m m m m m m m m m m m m m m m m m m m m m m m m m m m m m m ",
"m m m m m m m m m m m m m m m m m m m m m m m m m m m m m m m m m m m m m m m m m m m m m m m m m m m m m m m m m m m m m m m m ",
"m m m m m m m m m m m m m m m m m m m m m m m m m m m m f           0 m m m m m m m m m m m m m m m m m m m m m m m m m m m m m ",
"m m m m m m m m m m m m m m m m m m m m m m m m m m m                   X n m m m m m m m m m m m m m m m m m m m m m m m m m m ",
"m m m m m m m m m m m m m m Z G J A m m m m m m m m       6 w w w w 6       % m m m m m m m m m m m m m m e 9 d V v v V m m m m ",
"m m m m m m m m m m m m m F ( ..X.} Y C m m m m x     X w w w w w w w w q       m m m m c d d g v m m p 8 8 8 7 8 c v c s s d v ",
"m m m m m m C P E ! R S V ^ X.X.X.X. .I m m m 0     : w w w w w w w w w w w @     0 m c p 8 8 8 p v n 8 8 8 8 8 8 9 g 9 8 8 8 p ",
"m m m m m m I ' X.X...' L [ X.X.X.X.X.) C m *     w w w w w w w w w w w w w w q     o p 8 8 8 8 8 p e 8 8 8 8 8 8 8 9 8 8 8 8 8 ",
"m m m m m Z ^ X.X.X.X.X.` { X.X.X.X.X.| F @     w w w w w w w w w w w w w w w w w       7 7 7 7 8 8 8 8 8 8 8 8 8 8 8 7 8 8 7 8 ",
"m m m m m D ' X.X.X.X.X...] X.X.X.X.X.|       w w w w w w w w w w w w w w w w w w w $     7 8 8 8 8 t 8 8 8 8 8 8 8 8 8 8 8 8 8 ",
"m m m m m Z ( X.X.X.X.X.X.~ X.X.X.X.X.      w w w w w w w w w w w w w w w w w w w w q 5     7 7 8 8 t 8 7 8 8 8 8 9 8 8 8 8 8 8 ",
"m m m m m m U ..X.X.X.X.X.U ^ ..X.X.    X w w w w w w w w w w w w w w w w w w w w w w q q     7 8 8 p 8 8 7 8 8 8 9 8 8 8 8 8 t ",
"m m m m m m C W ..X.X.X._ F D E / h   X w w w w w w w w # # w w w w w w w w w w w w w w w *   X 8 8 a a 8 8 8 8 8 d a 9 8 9 t c ",
"m m m m m m m C P ^ ) ! J m m m M     w w w w w w w w $ # 6 w w w w w w w w w w w w w w w w     7 t d v a 8 8 8 d v v d d d g V ",
"m m m m m m m m m m m m m m m m     w w w w w w w w 6 # & w w w w w w w w w q w w w w w w w w   X d V m v d d d v V v v V v V V ",
"m m m m m m m m m m m m m m m     6 w w w w w w w q # # w w w w w w w w w $ # w w w w w w w w 6   X m m V V V v V v V v v V g V ",
"m m m m m m m m m m m m m m =   % q w w w w w w w w # $ w w w w w w w w w $ # w w w w w w w w w X   d n m m m m m m m m m m m m ",
"m m m m m m m m m m m m m m     w w w w w w w w w w w w w w w w w w w w w ; # w w w w w w w w w e     n m m m m m m m m m m m m ",
"m m m m m m m m m m m m m X   q w w w w w w w w w w w w w w w w w w w w w w # q w w w w w w w w w     m m m m m m m m m m m m m ",
"m m m m m m m m m m m m m     w w w w w w w w w w w w w w w w w w w w w w w w w w w w w w w w w w @   m m m m m m m m m m m m m ",
"m m m m m m m m m m m m c   $ r w w w w w w w w w w w w w w w w w w w w w w w w w w w w w w w w w     V n n m m m m m m m m m m ",
"m m m m m m m m m m m m m     q w w w w w w w w w w w w w w w w w w w w w w w w w w w w w w w w X     m n V v V m m m m m m m m ",
"m m m m m m m m m m m m m     * w w w w w q w w w w w w w w w w w w w w w w w w w 0 * X             m m V V v V m m m m m m m m ",
"m m m m m m m m m m m m m m                   5 w w w w w w w w w w w w w w w w               O n m m m g V V g m m m m m m m m ",
"m m m m m m m m m m m m m m m u               w w w w w w w w & # w w w w w w w O       X m m m m m m m m m m A A V n m m m m V ",
"m m m m m m m m m m m m m m m m m m x       q q w w w w w w w # & w w w w w w w w w 0         c m m m m m Z W ( ) Q S V m m n n ",
"m m m m m m m m m m m m m m m m n       X w w w w w w w w w w w w w w w w w w w w w w w q         n m m C ^ ..X.....~ C v V V n ",
"m m m m m m m m m m m m m m m @     X w w w w w w w w w w w w w w w w w w w w w w w w w w w w       X m Y X.X.X...X...F n n V n ",
"m m m m m m m m m m m m m c       q w w w w w w w w w w w w w w w w w w w # w w w w w w w w w w q       K X.X.X.X.X.X.H V V v V ",
"m m m m m m m m m m m m O     : w w w w w w w w w w w w w w w w w w w w # # w w w w w w w w w w w w 5     , X.X.X.X...A v n V g ",
"m m m m m m m m m m c       w w w w w w w w w w w w w w w w w w w w w & # ; w w w w w w w w w w w w w w       X.X.X.' V V n V v ",
"m m m m m m m m m x     = q w w w w w w w w w w w w w w w w w w w w 6 # & w w w w w w w w w w w w w w w w X     X. .Y V v v V v ",
"m m m m m m m m i     q w w w w w w w w w w q 5 $ 0 w w w w w w w w # # w w w w w w w w & q w w w w w w w w X   2 T Z n m m m m ",
"m m m m m m m c     w w w w w w w w w w w w ; # $ w w w w w w w w w 5 ; w w w w w w w w # $ q w w w w w w w w     ; m m m m m m ",
"m m m m m m n     q w w w w w w w w w w w 5 # # w w w w w w w w w w w w w w w w w w w w w # # w w w w w w w w w     b m m m m m ",
"m m m m m m X   ; w w w w w w w w w w w q # $ w w w w w w w w w w w w w w w w w w w w w w - # 6 w w w w w w w w q     m m m m m ",
"m m m m m m     w w w w q q w w w w w w # # q w w w w w w w w w w w w w w w w w w w w w w w # $ w w w w w w w w w     m m m m m ",
"m m m m m w   0 w w w w $ & w w w w w > # q w w w w w w w w w w w w w w w w w w w w w w w w w w w w w w w w w w w     m m m m m ",
"m m m m m X   w w w w w $ $ w w w w w w q w w w w w w w w w w w w w w w w w w w w w w w w w w w w w w w w w w w @   * m m m m m ",
"m m m m m     w w w w w ; q w w w w w w w w w w w w w w w w w w w w w w w w w w w w w w w w w w w w w w w w w o     m m m m m m ",
"m m m m m X   w w w w w w w w w w w w w w w w w w w w w w w w w w w w w w w w w w w w w w w w w w w w w w w X     m m m m m m m ",
"m m m m m g     w w w w w w w w w w w w w w w w w w w w w w w w w w w w w w w w w w w w w w w w w w w w w       m m m m m m m m ",
"m m m m m m O     > q r w w w w w w w w w w w w w w w r w w w w w q w w q w w w w w w w w w w w w q *       o m m m m m m m m m ",
"m m m m m m m 1           @ ; 0 q 0 5 5 ; & O                                                             r m m m m m m m m m m ",
"m m m m m m m m m y                                                                             X > c m m m m m m m m m m m m m ",
"m m m m m m m m m m m m m m g g g f f g g m     B B B B B B B B B B B B B B B B B     m m m m m m m m m m m m m m m m m m m m m ",
"m m m m m m m m m m m m m m m m n m n m c M X   B B B N B B B B B B B B B B B B B     m m n m n c g g c v m m v c n m m m m m m ",
"m m m m m m m m m m m m m m m m m m n M A M     B B B N N j B B B B B B B B B B B     r f c n g 9 8 8 8 d n c p 9 e a b m m m m ",
"m m m m m m m m m m m m m m m m f u y y y y     N B B B 4 4 N B B B B B B B B B N     y y y y y y 8 8 8 8 c 8 8 8 8 8 s m m m m ",
"m m m m m m m m m m m m m c y y y y y y y y     B B B B 4 4 B B B B B B B B B B B     y y y y y y y y y 7 e 8 8 7 8 8 9 v m m m ",
"m m m m m m m m m m m f y y y y y y y y y y     B B B B j 4 B B B B B B B B B B B .   y y y y y y y y y y y 7 8 8 8 8 9 c m m m ",
"m m m m m m m m m m y y y y y y y y y y y y     B B B B N N B B B B k 4 N B B B N .   y y y y y y y y y y y y 8 8 7 8 e m m m m ",
"m m m m m m m m m y y y y y y y y y y y y y     B B B B B B B B B B 4 4 z B B B B < . y y y y u y y y y y y y y 8 8 8 d m m m m ",
"m m m m m m m m y y y y y y y y y y y y y y     B B B B B B B B B B 4 4 N B B B B l   0 y y y y y y y y y y y y r 8 e m m m m m ",
"m m m m m m m m y y y y y y y y y y y y y y     B B B B B B B B B B 4 4 B B B B N z   q y y y y y y y y y y y y y p c m m m m m ",
"m m m m m m m m y y y y y y y y y y y y y y     B B B B B B B B B B B B B B B B N 3   y y y y y y y y y y y y y y m m m m m m m ",
"m m m m m m m m y y y y y y y y y y y y y y X   N B B B B B B B B B N B B N B B N .   y y y y y y y y y y y y y n m m m m m m m ",
"m m m m m m m m c y y y y y y y y y y y y y y .                 . . + . .             y y y y y y y y y y y y g m m m m m m m m ",
"m m m m m m m m m c y y y y y y y y y y y y y 0                                 . 0 y y y y y y y y y y y y v m m m m m m m m m ",
"m m m m m m m m m m m u y y y y y y y y y y y y y y y y y y y y y y y y y y y y y y y y y y y y y y y y f m m m m m m m m m m m ",
"m m m m m m m m m m m m m i y y y y y y y y y y y y y y y y y y y y y y y y y y y y y y y y y y y y c m m m m m m m m m m m m m ",
"m m m m m m m m m m m m m m m n i u y y y y y y y y u y y y y y y y y y y y y y y y y y y y y c m m m m m m m m m m m m m m m m ",
"m m m m m m m m m m m m m m m m m m m m c i y y y y y y y y y y y y y y y y y y y i x m m m m m m m m m m m m m m m m m m m m m ",
"m m m m m m m m m m m m m m m m m m m m m m m m m m m m m m n n n m n n M n b M m m m m m m m m m m m m m m m m m m m m m m m m "
};
